<svg width="32" height="32" viewBox="0 0 32 32" fill="none" xmlns="http://www.w3.org/2000/svg">
<rect width="32" height="32" rx="4" fill="white"/>
<path d="M27.4296 18.6059L22.1421 9.43418C20.983 7.52257 18.1562 7.50224 17.0377 9.51553L11.4859 19.0532C10.4488 20.8022 11.73 22.9985 13.8043 22.9985H24.9282C27.0229 22.9985 28.5887 20.7412 27.4296 18.6059Z" fill="#3156AA"/>
<path d="M19.8039 19.3178L19.4786 18.7484C19.1735 18.2196 18.5024 17.0808 18.5024 17.0808L14.0284 9.31233C12.8693 7.58374 10.1239 7.44139 8.9647 9.61737L3.75861 18.6263C2.68079 20.5176 3.96197 22.9783 6.30065 22.9986H17.3636H22.0816H24.888C22.0206 23.019 21.1055 21.5344 19.8039 19.3178Z" fill="#1972E2"/>
<path d="M19.8043 19.3172L19.4789 18.7477C19.1739 18.219 18.5028 17.0802 18.5028 17.0802L15.615 11.9961L11.4664 19.0731C10.4293 20.822 11.7104 23.0184 13.7847 23.0184H17.3436H22.0616H24.8883C22.0006 22.998 21.1058 21.5338 19.8043 19.3172Z" fill="url(#paint0_linear_5575_77706)"/>
<defs>
<linearGradient id="paint0_linear_5575_77706" x1="9.98992" y1="15.8576" x2="22.8421" y2="20.6068" gradientUnits="userSpaceOnUse">
<stop stop-color="#264CA1" stop-opacity="0"/>
<stop offset="1" stop-color="#234588"/>
</linearGradient>
</defs>
</svg>
